<svg version="1.1" xmlns="http://www.w3.org/2000/svg" viewBox="0 0 1000 1000">
<g transform="matrix(1 0 0 -1 0 1920)"><path d="M112.1,930c-28.3,0-52.4,9.9-72.3,29.8c-19.9,19.9-29.8,44-29.8,72.3v775.8c0,28.3,9.9,52.4,29.8,72.3c19.9,19.9,44,29.8,72.3,29.8h775.8c28.3,0,52.4-9.9,72.3-29.8c19.9-19.9,29.8-44,29.8-72.3v-775.8c0-28.3-9.9-52.4-29.8-72.3c-19.9-19.9-44-29.8-72.3-29.8H112.1z M718.5,1079c6.5,0,11,2.7,13.3,8c2.3,5.3,3.5,12.9,3.5,22.7c0,2.7-0.1,6.9-0.2,12.5c-0.1,5.6-0.2,9.6-0.2,12c0,10.9,3.5,29.3,10.4,55.3c6.9,26,10.4,41.6,10.4,46.8c0,7.9-1.4,14.6-4.1,20c-2.7,5.4-6,9.3-9.8,11.4c-3.8,2.2-7.9,3.3-12.3,3.3s-8.1-1.1-11.2-3.3c-3.1-2.2-5-5-5.5-8.6c-3-15.8-5.7-28.2-8.2-37.2c-2.5-9-6.1-17.8-10.8-26.3s-10.7-15.7-17.8-21.4c-9.3-7.3-20.6-13.4-34.1-18.2c-13.5-4.8-28.4-8.2-44.9-10.4c-16.5-2.2-31.8-3.7-45.9-4.5c-14.2-0.8-30.1-1.2-47.8-1.2c-7.1,0-16.7,0.1-28.8,0.2c-12.1,0.1-20.5,0.2-25.1,0.2c-15,0-27.4,1.8-37.4,5.3c-9.9,3.5-17.3,8.6-22,15.1c-4.8,6.5-8,13.2-9.8,20c-1.8,6.8-2.7,14.6-2.7,23.3v177.2c0,25.9,7.8,38.8,23.3,38.8h150.7c9.3,0,17.7-0.8,25.3-2.5c7.6-1.6,14-3.6,19.2-5.9c5.2-2.3,9.9-5.6,14.1-9.8c4.2-4.2,7.5-7.9,9.8-11c2.3-3.1,4.6-7.3,6.7-12.7c2.2-5.3,3.6-9.3,4.3-12c0.7-2.7,1.7-6.5,3.1-11.4c0-0.8,0.1-1.4,0.4-1.6c1.4-5.7,3.7-10,7.1-12.9c3.4-2.9,7.3-4.3,11.6-4.3s8.2,1.6,11.4,4.7c3.3,3.1,4.9,7.6,4.9,13.3c0,6.5-0.8,19.3-2.2,38.2c-1.5,18.9-2.2,33.8-2.2,44.7c0,16.6,1.5,41.5,4.5,74.7c0.8,10.1-0.8,17.7-4.7,22.9c-3.9,5.2-8.9,7.8-14.9,7.8c-3.5,0-6.1-0.1-7.8-0.4c-1.6-0.3-3.4-1.1-5.3-2.4c-1.9-1.4-3.3-3.7-4.1-6.9c-0.8-3.3-1.4-7.6-1.6-13.1c-1.6-19.9-8.6-34.6-20.8-44.1s-26.8-14.3-43.7-14.3H398.3c-4.9,0-8.7,0.6-11.4,1.8c-2.7,1.2-4.8,3.5-6.1,6.7c-1.4,3.3-2,7.8-2,13.5c0,4.6-0.1,30.3-0.4,77c-0.3,46.7-0.4,76.4-0.4,89.2c0,4.6,0.1,8.2,0.2,10.8c0.1,2.6,0.5,5.6,1.2,9.2c0.7,3.5,1.8,6.2,3.3,8c1.5,1.8,3.5,3.8,5.9,6.1c2.5,2.3,5.6,4,9.6,5.1c3.9,1.1,8.6,2.2,14.1,3.5c5.4,1.2,11.9,2.1,19.4,2.7c7.5,0.5,16,1,25.5,1.4s20.3,0.6,32.3,0.6c25.3,0,47.9-0.6,67.8-1.8c19.9-1.2,36.5-2.9,49.8-4.9s24.8-4.6,34.5-7.8c9.7-3.1,17.1-6.3,22.3-9.4c5.2-3.1,9.3-6.9,12.3-11.2c3-4.4,4.8-8.2,5.5-11.6s1-7.3,1-11.6v-6.5v-6.1c0-8.2,1.2-13.7,3.5-16.5c2.3-2.9,5.9-4.3,10.8-4.3c5.4,0,10.8,2,15.9,6.1c5.2,4.1,7.8,10.2,7.8,18.4c0,6-0.8,16.9-2.5,32.9s-2.5,27.6-2.5,34.9c0,7.9,1.4,16.9,4.1,26.9c2.7,10.1,4.1,15.8,4.1,17.2c0,3.3-0.5,6.3-1.4,9s-3.1,5.4-6.3,8c-3.3,2.6-7.5,4-12.7,4.3c-5.7,0-17.4-1.2-35.1-3.7c-17.7-2.5-44.8-4.8-81.3-7.1c-36.5-2.3-80.6-3.5-132.3-3.5c-24.8,0-54.8,0.3-90,1c-35.3,0.7-65.8,1.4-91.7,2c-25.9,0.7-39.7,1-41.6,1c-10.6,0-15.9-5.3-15.9-15.9v-3.3v-3.5c0,0,0.1-1,0.2-3.1c0.1-2,0.4-3.1,0.8-3.1s0.9-0.8,1.4-2.5c0.5-1.6,1.3-2.4,2.2-2.4s2.1-0.6,3.5-1.8c1.4-1.2,3-1.8,4.9-1.6c1.9,0.1,3.9-0.1,6.1-0.8c10.1-1.1,18.9-3.8,26.5-8.2c7.6-4.4,13.5-9.6,17.8-15.7c4.2-6.1,7.7-13.5,10.4-22c2.7-8.6,4.5-16.8,5.3-24.7s1.2-16.6,1.2-26.1V1206c0-10.9-1.2-20.8-3.5-29.6c-2.3-8.8-5.3-16.1-9-21.8c-3.7-5.7-8-10.8-13.1-15.1s-9.9-7.7-14.5-10c-4.6-2.3-9.5-4.2-14.7-5.5s-9.4-2.2-12.7-2.5c-3.3-0.3-6.3-0.4-9-0.4c-13.3,0-20-6.3-20-18.8c0-5.7,1.4-9.7,4.1-12c2.7-2.3,8.3-3.5,16.7-3.5c12.5,0,75.9,0.3,190.3,0.8c114.3,0.5,186.5,0.8,216.4,0.8c18.2,0,33.4-0.5,45.5-1.4c12.1-1,20.1-2,23.9-3.3c3.8-1.2,7.5-2.3,11-3.3C711,1079.5,714.6,1079,718.5,1079z" fill="currentColor"/></g>
</svg>
