<svg width="504px" height="379px" viewBox="0 0 504 379" xmlns="http://www.w3.org/2000/svg"><path d="M72.238,345.512 C72.238,345.512 88.476,258.711 92.957,250.871 C94.637,248.633 97.438,239.672 103.598,229.031 C111.996,243.59 113.118,264.312 127.118,279.429 C147.278,301.827 190.958,303.507 215.04,279.429 C239.118,255.351 236.88,211.667 213.919,191.507 C204.399,183.109 198.239,175.827 194.317,168.546 C248.079,155.667 299.597,166.308 309.117,168.546 C305.195,175.827 299.597,183.105 289.515,191.507 C266.554,211.667 264.316,254.788 288.394,279.429 C312.472,303.507 356.156,301.827 376.316,279.429 C390.316,264.308 390.875,243.589 399.836,228.468 C405.996,239.667 408.797,248.07 410.477,250.866 C415.516,258.706 431.196,345.507 431.196,345.507 C436.797,366.226 470.958,407.667 495.594,344.948 C502.32,322.553 504,292.874 504,262.632 C504,193.194 492.801,118.712 492.801,118.712 L492.799,118.715 C492.799,118.715 492.799,110.317 487.197,97.996 C482.717,85.676 475.998,73.918 465.916,64.394 C463.116,61.593 459.756,58.793 456.956,56.554 C463.116,50.394 456.397,45.355 456.397,45.355 C452.475,41.996 447.999,39.195 443.518,36.957 C437.916,29.676 430.077,21.836 420.557,17.918 C409.358,12.879 398.717,16.238 391.436,19.598 C384.717,18.477 381.916,19.598 380.237,21.277 C379.678,21.277 379.116,20.719 378.557,20.719 C378.557,20.719 317.518,0 255.357,0 C193.196,0 125.437,20.719 125.437,20.719 C123.758,21.277 122.078,21.84 120.398,21.84 C114.238,17.918 100.238,11.199 86.238,17.359 C69.437,24.641 57.679,43.121 54.316,50.961 C48.156,54.883 42.554,58.801 37.515,64.402 C26.874,75.043 19.035,87.922 15.117,101.922 C11.195,112 11.195,118.723 11.195,118.723 C11.199,118.716 0,193.196 0,262.633 C0,292.875 1.68,322.555 7.84,344.953 C31.918,407.672 66.641,366.234 72.238,345.512" fill="currentColor"></path></svg>
