<svg viewBox="0 0 24 20" xmlns="http://www.w3.org/2000/svg">
  <path d="M20.4931801,0 C21.1598666,0 21.7850379,0.339448442 22.1440229,0.90112572 C23.318661,2.75466074 24,4.95252835 24,7.31157292 C24,14.2177614 18.1658825,19.7612719 11.1571269,19.2826252 C5.37917719,18.887009 0.441301294,13.9637855 0.0310326736,8.18583581 C-0.159449186,5.49955318 0.536542224,2.9842158 1.85526279,0.903567795 C2.21180576,0.339448442 2.83697699,0 3.50610557,0 L20.4931801,0 Z M19.283,4 L4.716,4 L4.64470615,4.16047936 C4.18856739,5.22067292 3.96629643,6.37745758 4.00418402,7.57496487 L4.02098696,7.90252545 C4.28992457,11.6900634 7.64158327,15.0325506 11.4296629,15.2919204 C16.0877028,15.6100305 20,11.9412287 20,7.31157292 C20,6.2129375 19.7798715,5.15221506 19.3643823,4.17861422 L19.283,4 Z" fill="currentColor" fill-rule="nonzero"></path>
</svg>
